# xmcd
#
# Track frame offsets:
#	150
#	8936
#	20885
#	32552
#	41945
#	47215
#	51905
#	63158
#	76233
#	85374
#	91732
#	101184
#	109919
#	116801
#	123987
#	127876
#
# Disc length: 1786 seconds
#
# Revision: 2
# Processed by: cddbd v1.5.2PL0 Copyright (c) Steve Scherf et al.
# Submitted via: EZCDAudioConverter 2.1.3.1
#
DISCID=d806f810
DTITLE=, LATUM and WHITE - 1964 CHICAGO REHEARSAL
DYEAR=2011
DGENRE=Bluegrass
TTITLE0=BUSH,  LATHUM and WHITE - SHUCKING THE CORN
TTITLE1=BUSH,  LATHUM and WHITE - CHUG - A LUG
TTITLE2=BUSH, LATHUM and WHITE - SHE'S NO ANGEL
TTITLE3=BUSH, LATHUM and WHITE - SALTY DOG
TTITLE4=BUSH, LATHUM and WHITE - JUST STAY AROUND
TTITLE5=BUSH, LATHUM and WHITE - DIXIE BREAKDOWN
TTITLE6=BUSH, LATHUM and WHITE - MOCKING BANJO
TTITLE7=BUSH, LATHUM and WHITE - ONCE MORE
TTITLE8=BUSH, LATHUM and WHITE - GREEN CORN
TTITLE9=BUSH, LATHUM and WHITE - RUEBIN'S TRAIN
TTITLE10=BUSH, LATHUM and WHITE - DON'T LET YOUR DEAL GO DOWN
TTITLE11=BUSH, LATHUM and WHITE - FLOP EARED MULE
TTITLE12=BUSH, LATHUM and WHITE - BLACK EYED SUSIE
TTITLE13=BUSH, LATHUM and WHITE - SALLY ANN
TTITLE14=BUSH, LATHUM and WHITE - CUMBERLAND GAP
TTITLE15=BUSH, LATHUM and WHITE - SHADY GROVE
EXTD=
EXTT0=
EXTT1=
EXTT2=
EXTT3=
EXTT4=
EXTT5=
EXTT6=
EXTT7=
EXTT8=
EXTT9=
EXTT10=
EXTT11=
EXTT12=
EXTT13=
EXTT14=
EXTT15=
PLAYORDER=
